<?xml version="1.0" standalone="no"?>
<!DOCTYPE svg PUBLIC "-//W3C//DTD SVG 20010904//EN"
 "http://www.w3.org/TR/2001/REC-SVG-20010904/DTD/svg10.dtd">
<svg version="1.0" xmlns="http://www.w3.org/2000/svg"
 width="1024.000000pt" height="1024.000000pt" viewBox="0 0 1024.000000 1024.000000"
 preserveAspectRatio="xMidYMid meet">

<g transform="translate(0.000000,1024.000000) scale(0.100000,-0.100000)"
fill="#000000" stroke="none">
<path d="M6590 8060 c-96 -24 -156 -50 -230 -100 -124 -84 -223 -205 -272
-331 -16 -42 -27 -57 -38 -54 -54 17 -162 23 -229 14 l-74 -10 -30 37 c-43 52
-139 111 -222 136 -146 45 -302 24 -437 -59 l-57 -35 -33 25 c-168 126 -403
150 -590 60 -87 -41 -142 -84 -194 -152 l-38 -51 -81 0 c-146 0 -268 -52 -366
-158 -33 -35 -72 -88 -87 -118 -23 -48 -31 -56 -67 -64 -22 -6 -74 -27 -115
-47 -151 -75 -270 -232 -300 -394 -7 -35 -14 -73 -16 -84 -3 -12 -24 -30 -56
-45 -67 -32 -167 -125 -201 -188 -32 -59 -57 -158 -57 -231 0 -49 -4 -57 -46
-104 -126 -140 -171 -356 -116 -549 17 -61 19 -83 11 -105 -5 -15 -13 -71 -16
-124 -14 -224 82 -448 255 -595 130 -111 301 -180 479 -191 l91 -6 48 -69 c67
-99 141 -160 269 -223 144 -72 245 -95 420 -95 72 0 161 5 199 10 82 12 250
67 333 108 l58 30 42 -33 c97 -75 257 -142 407 -170 44 -9 83 -19 87 -23 20
-21 272 -339 378 -477 228 -294 261 -333 300 -348 44 -17 354 -17 386 1 44 23
77 70 82 115 5 39 -4 66 -67 213 -39 93 -74 174 -77 181 -3 8 26 10 114 6 139
-7 240 10 373 62 285 110 498 348 581 651 50 184 67 514 51 979 -11 297 -19
352 -68 453 -25 52 -25 53 -10 115 44 176 -3 348 -128 465 -59 55 -62 60 -79
136 -9 44 -16 80 -14 81 37 21 119 90 165 140 114 121 180 282 189 460 6 110
-4 179 -37 268 l-22 58 -121 -128 c-67 -70 -200 -208 -296 -305 -141 -144
-179 -177 -195 -172 -25 8 -47 30 -39 38 4 3 1 6 -5 6 -7 0 -12 -4 -12 -9 0
-5 -33 -11 -72 -15 -99 -8 -96 -7 -90 -30 5 -19 4 -20 -14 -6 -10 8 -81 75
-156 149 -98 96 -138 142 -138 158 0 26 54 90 98 116 31 17 31 17 69 -15 21
-17 86 -78 144 -135 l105 -104 205 216 c112 119 249 264 304 322 l100 106 -74
68 c-174 161 -429 226 -661 169z m82 -71 c-23 -4 -48 -11 -55 -16 -13 -8 -13
-8 -67 -17 l-35 -6 28 16 c31 17 97 32 142 32 23 0 20 -2 -13 -9z m195 5 c-3
-3 -12 -4 -19 -1 -8 3 -5 6 6 6 11 1 17 -2 13 -5z m100 -20 c-3 -3 -12 -4 -19
-1 -8 3 -5 6 6 6 11 1 17 -2 13 -5z m-539 -73 c-7 -11 -15 -18 -19 -15 -4 2
-9 -3 -12 -11 -5 -12 -87 -59 -87 -50 0 4 121 95 126 95 2 0 -1 -9 -8 -19z
m753 -48 c13 -16 12 -17 -3 -4 -10 7 -18 15 -18 17 0 8 8 3 21 -13z m-2458
-198 c74 -19 141 -54 195 -100 l42 -37 0 -124 0 -123 -141 -3 c-122 -3 -143
-5 -153 -20 -8 -13 -6 -25 7 -47 25 -43 22 -85 -11 -122 -39 -44 -95 -44 -134
0 -17 19 -28 43 -28 60 0 16 -6 31 -15 35 -12 4 -15 -3 -15 -30 0 -47 24 -91
63 -114 110 -68 236 65 167 178 l-20 32 138 0 138 0 -3 -134 c-3 -160 5 -180
59 -157 65 27 93 25 129 -7 45 -40 45 -94 0 -134 -37 -33 -64 -35 -109 -8 -39
24 -46 25 -66 4 -13 -12 -16 -41 -16 -155 l0 -139 -135 0 c-134 0 -136 0 -147
-25 -9 -19 -8 -29 6 -49 26 -41 21 -93 -13 -127 -74 -74 -191 10 -146 105 9
19 15 47 13 63 l-3 28 -152 3 -153 3 0 139 c0 77 2 140 5 140 2 0 22 -9 44
-21 107 -56 222 62 166 171 -34 65 -112 90 -179 55 -15 -8 -30 -15 -32 -15 -2
0 -4 44 -4 97 0 77 -3 94 -12 85 -8 -8 -13 -45 -13 -104 0 -112 9 -122 79 -89
45 22 46 22 83 4 60 -29 75 -105 32 -152 -31 -33 -65 -36 -120 -10 -71 33 -77
23 -80 -119 -1 -62 -4 -125 -7 -141 l-4 -28 -131 -6 c-72 -4 -133 -5 -135 -2
-2 2 3 14 12 27 20 28 21 90 2 127 -32 60 -108 81 -174 47 -57 -29 -75 -99
-47 -183 7 -23 7 -23 -116 -24 -68 -1 -170 -1 -226 0 -80 2 -107 -1 -125 -13
-21 -15 -17 -16 69 -16 l92 0 3 -131 c3 -113 5 -133 21 -143 13 -8 24 -7 48 7
17 9 46 17 64 17 74 0 115 -111 60 -165 -29 -30 -63 -32 -116 -5 -42 22 -71
16 -83 -16 -3 -8 -6 -81 -6 -160 l0 -144 -136 0 -136 0 14 23 c38 58 27 121
-31 170 -60 50 -156 25 -187 -48 -18 -44 -18 -69 2 -107 13 -25 14 -32 2 -39
-17 -11 -165 -12 -172 0 -10 15 15 136 39 188 23 50 125 166 154 175 12 3 12
12 1 57 -14 58 -8 134 16 189 15 38 83 126 91 119 2 -3 15 6 29 20 30 30 100
62 137 63 26 0 27 1 27 59 0 225 135 414 334 467 28 8 65 14 82 14 28 0 32 4
44 43 32 109 108 200 208 249 60 30 76 33 152 33 60 0 95 -5 119 -18 19 -9 35
-16 36 -15 1 2 14 29 28 60 76 170 287 263 480 213z m760 -35 c26 -10 70 -35
97 -56 49 -37 110 -112 110 -134 0 -6 10 -10 23 -8 21 3 22 0 22 -72 l0 -75
-143 -3 c-139 -2 -143 -3 -153 -26 -8 -18 -7 -30 5 -54 38 -74 2 -151 -72
-152 -88 -1 -123 84 -71 168 10 17 11 26 3 40 -10 15 -31 17 -162 20 l-151 3
-6 27 c-3 16 -5 57 -4 93 1 35 -1 75 -6 89 -8 25 -8 25 13 6 21 -19 22 -18 66
31 106 118 279 159 429 103z m545 -175 c5 -6 7 -47 4 -92 l-4 -83 -129 0 -129
0 0 85 c0 79 2 86 23 95 28 12 224 8 235 -5z m-748 -212 c0 -5 -7 -16 -15 -26
-41 -55 -22 -151 37 -187 62 -38 145 -15 180 51 23 43 22 63 -2 117 -15 33
-16 44 -7 48 7 2 69 3 138 2 l124 -3 3 -147 c2 -131 5 -149 21 -157 13 -8 29
-5 57 10 73 37 144 -4 144 -82 0 -79 -68 -111 -149 -69 -64 32 -70 19 -73
-140 l-3 -135 -132 0 c-73 0 -133 1 -133 3 0 2 7 17 16 34 36 69 -14 169 -91
184 -59 11 -119 -20 -141 -73 -18 -42 -18 -71 1 -107 8 -15 15 -32 15 -37 0
-5 -63 -9 -140 -9 l-140 0 0 136 c0 116 2 135 14 125 49 -41 128 -29 175 25
25 28 31 44 31 81 0 39 -5 50 -39 84 -32 33 -45 39 -80 39 -23 0 -55 -7 -71
-15 l-30 -16 0 98 c0 54 -3 115 -6 136 l-7 37 152 0 c83 0 151 -3 151 -7z
m753 1 c3 -4 0 -19 -8 -35 -24 -46 -19 -112 11 -148 14 -17 34 -31 44 -31 13
0 30 -20 52 -62 63 -119 199 -241 326 -293 61 -25 69 -37 71 -107 l1 -38 -155
0 c-147 0 -155 -1 -166 -21 -9 -18 -7 -30 10 -63 37 -76 -1 -146 -80 -146 -29
0 -43 7 -63 31 -29 35 -33 71 -11 113 19 36 19 51 -1 70 -12 13 -41 16 -155
16 l-139 0 0 119 c0 118 7 144 30 117 17 -22 65 -29 103 -17 105 35 127 162
41 230 -32 25 -110 29 -140 6 -10 -8 -22 -15 -26 -15 -10 0 -11 264 -1 273 8
9 248 9 256 1z m31 -127 c8 -26 12 -47 10 -47 -8 0 -34 61 -34 81 0 31 8 20
24 -34z m-2185 -426 c29 -29 36 -82 16 -124 -9 -20 -14 -45 -10 -56 6 -19 15
-21 153 -23 l147 -3 3 -45 c2 -25 1 -63 -3 -86 -5 -35 -10 -42 -41 -53 -148
-54 -195 -253 -89 -379 98 -116 281 -99 365 35 36 57 46 117 30 184 -10 41
-24 64 -64 105 -44 44 -59 54 -108 64 l-58 11 0 85 0 84 140 0 c77 0 140 -3
140 -7 -1 -5 -7 -19 -15 -33 -31 -55 -7 -148 46 -175 115 -60 241 55 183 167
-9 18 -12 34 -7 39 6 6 63 8 128 7 l118 -3 -2 -125 c-2 -97 1 -129 12 -145 15
-19 16 -19 51 -2 102 48 189 -18 156 -118 -6 -19 -16 -35 -21 -35 -6 0 -7 -5
-3 -11 4 -7 16 -2 33 15 21 22 26 36 26 77 0 46 -4 54 -39 86 -36 33 -42 35
-90 30 -28 -2 -59 -8 -69 -12 -16 -7 -17 1 -15 116 l3 124 149 5 c127 4 150 8
160 22 8 13 6 25 -7 47 -21 36 -22 73 -2 110 16 33 33 41 81 41 71 0 106 -78
69 -151 -12 -22 -13 -34 -5 -49 10 -19 21 -20 154 -20 l144 0 1 -84 0 -84 -49
-12 c-213 -51 -252 -335 -60 -437 38 -21 56 -24 117 -21 61 3 78 8 115 33 61
44 101 113 106 185 9 122 -51 203 -180 244 -15 5 -18 18 -18 91 l0 85 136 0
c105 0 134 -3 130 -12 -35 -86 -31 -125 18 -174 44 -44 91 -52 144 -25 67 34
92 114 57 181 l-16 30 131 2 c71 0 136 1 143 2 9 1 13 -30 15 -118 1 -66 0
-126 -2 -133 -4 -10 -13 -9 -38 7 -89 54 -191 -8 -191 -117 0 -49 22 -86 66
-113 41 -25 73 -25 122 0 22 11 41 20 42 20 2 0 3 -66 3 -146 l0 -147 -210 7
-211 7 21 -33 c38 -63 19 -153 -40 -183 -38 -19 -38 -30 0 -50 62 -32 140 -8
180 57 24 39 25 62 5 117 l-14 41 135 0 136 0 -4 -120 c-2 -84 -7 -120 -15
-120 -6 0 -15 5 -18 10 -9 15 -92 12 -125 -5 -65 -34 -90 -116 -56 -184 32
-61 112 -85 173 -54 l38 20 0 -138 0 -139 -128 0 -128 0 17 32 c48 93 -16 198
-119 198 -53 0 -94 -27 -118 -78 -21 -42 -21 -67 -3 -129 l6 -23 -136 0 -136
0 0 140 c0 77 3 140 8 140 4 0 16 -7 26 -15 11 -8 37 -15 58 -15 108 0 172
109 118 198 -34 55 -131 81 -176 47 -28 -21 -34 -18 -34 18 0 21 -7 36 -20 45
-19 12 -20 10 -20 -37 0 -59 16 -76 62 -67 89 19 116 18 137 -3 39 -39 40
-102 1 -141 -24 -24 -87 -27 -116 -5 -23 18 -56 19 -72 3 -8 -8 -12 -59 -12
-163 l0 -150 -130 2 c-72 1 -131 3 -132 5 0 2 5 20 12 42 25 76 -7 143 -77
167 -50 16 -97 4 -131 -36 -39 -44 -47 -83 -28 -130 9 -21 16 -42 16 -47 0 -5
-60 -7 -137 -6 l-138 3 -5 90 c-3 60 -9 91 -17 92 -10 2 -12 -20 -10 -89 l2
-92 -128 2 c-171 2 -187 -8 -151 -93 29 -70 -6 -125 -80 -125 -37 0 -48 5 -70
31 -30 35 -32 60 -10 99 10 17 14 37 11 52 -6 23 -12 26 -83 32 -43 3 -112 6
-156 6 l-78 0 0 148 c0 152 -5 172 -41 172 -9 0 -30 -7 -45 -15 -43 -22 -72
-18 -105 14 -20 20 -29 39 -29 61 0 66 85 113 136 75 41 -31 84 -12 84 38 0
22 -4 28 -17 25 -10 -2 -19 -14 -21 -26 -3 -22 -5 -23 -22 -7 -11 10 -38 19
-62 22 -117 12 -180 -127 -96 -214 39 -41 82 -50 133 -29 20 9 41 16 46 16 5
0 9 -63 9 -140 l0 -140 -145 0 -146 0 16 30 c57 111 -67 241 -174 182 -62 -34
-88 -114 -56 -176 8 -15 15 -30 15 -32 0 -2 -61 -4 -135 -4 l-135 0 0 154 c0
176 -5 191 -63 167 -61 -26 -101 -25 -133 2 -56 48 -28 146 46 162 19 4 42 -1
69 -15 32 -16 46 -18 61 -10 18 10 20 21 20 140 l0 130 140 0 141 0 -16 -30
c-48 -93 10 -190 114 -190 37 0 49 6 83 40 39 38 40 43 35 88 -3 26 -9 57 -12
70 -5 16 -3 22 7 22 8 0 23 9 33 20 18 20 17 20 -28 20 -58 0 -67 -21 -41 -96
18 -53 18 -54 -2 -81 -49 -66 -130 -64 -162 3 -14 30 -14 39 -3 67 41 100 31
107 -151 107 l-138 0 0 149 0 149 50 -21 c47 -20 54 -20 92 -7 104 36 117 174
23 236 -31 20 -99 20 -130 0 -14 -9 -27 -16 -30 -16 -3 0 -5 56 -5 125 l0 125
149 0 c174 0 184 4 157 70 -22 56 -20 84 10 119 22 26 33 31 70 31 30 0 50 -6
63 -19z m3141 -67 c16 -40 13 -94 -5 -94 -24 0 -30 -47 -10 -84 33 -62 -12
-136 -82 -136 -60 0 -98 64 -74 124 22 53 22 60 8 80 -13 17 -28 19 -151 20
l-136 0 0 49 c0 42 3 48 17 43 79 -31 276 -26 370 9 52 19 52 19 63 -11z
m-205 -151 c-24 -60 -26 -84 -8 -121 37 -75 122 -103 190 -61 47 29 67 72 59
126 l-6 44 41 -23 c62 -34 117 -102 135 -167 22 -73 15 -199 -14 -265 l-21
-47 29 -41 c27 -36 70 -135 70 -158 0 -6 -52 -10 -126 -10 -97 0 -124 3 -120
13 35 86 31 124 -19 174 -28 28 -40 33 -81 33 -62 0 -105 -26 -129 -76 -18
-38 -16 -68 9 -124 5 -13 -11 -15 -124 -12 l-130 3 0 148 0 148 -26 13 c-23
13 -30 12 -56 -3 -46 -26 -102 -22 -127 9 -31 39 -28 89 8 125 35 35 70 37
118 8 31 -20 35 -20 58 -5 25 16 25 19 25 151 l0 135 126 0 c116 0 126 -1 119
-17z m-2615 -243 c28 -15 40 -61 25 -97 -22 -52 -90 -61 -125 -16 -52 66 25
153 100 113z m1510 -10 c41 -41 35 -93 -14 -125 -48 -31 -106 8 -106 70 0 35
7 47 35 63 30 17 63 14 85 -8z m-2638 -291 c11 -6 26 -26 34 -46 14 -31 13
-41 -2 -89 -25 -81 -21 -84 147 -84 l139 0 0 -120 0 -121 -30 16 c-49 25 -104
20 -143 -15 -48 -42 -63 -81 -49 -128 25 -81 107 -121 185 -89 l37 16 0 -145
0 -144 -116 0 c-107 0 -116 1 -108 18 4 9 9 37 11 62 10 115 -126 182 -209
103 -42 -40 -55 -91 -33 -136 9 -20 15 -40 12 -44 -3 -5 -26 -7 -51 -5 -45 4
-46 5 -76 65 -47 97 -63 178 -57 282 3 50 12 110 21 134 16 42 15 46 -8 105
-32 80 -43 146 -24 147 7 0 53 1 102 2 109 2 122 13 89 78 -26 52 -21 86 17
122 32 29 76 35 112 16z m3915 -14 c31 -22 38 -72 18 -122 -13 -32 -14 -46 -5
-62 10 -20 19 -21 154 -21 l143 0 7 -61 c10 -102 7 -139 -15 -179 -19 -34 -24
-37 -46 -29 -43 16 -53 10 -33 -21 5 -8 12 -11 17 -7 4 5 1 12 -7 17 -10 6
-11 10 -3 10 7 0 17 -9 23 -19 11 -22 -28 -93 -128 -234 -55 -77 -56 -77 -70
-54 -8 13 -30 34 -48 46 -28 19 -43 23 -84 19 -97 -10 -139 -87 -105 -194 7
-21 4 -21 -114 -22 l-121 0 0 147 c0 101 -4 151 -12 159 -16 16 -49 15 -72 -3
-11 -8 -37 -15 -57 -15 -29 0 -43 7 -63 31 -30 35 -32 58 -11 99 27 53 71 63
134 31 34 -18 40 -18 60 -5 20 14 21 23 21 150 l0 134 137 0 c113 0 140 3 155
17 22 19 23 41 3 67 -8 11 -15 35 -15 53 0 68 81 107 137 68z m-747 -301 c0
-45 -45 -94 -86 -94 l-27 0 23 25 c12 13 26 22 30 20 4 -3 16 5 26 17 12 14
14 18 4 13 -13 -8 -13 -6 -2 8 8 9 11 20 8 26 -5 8 2 14 22 20 1 1 2 -15 2
-35z m-824 -450 c14 -10 32 -30 40 -46 14 -27 14 -35 -2 -85 -27 -85 -24 -87
145 -91 l141 -3 -1 -109 c0 -61 -4 -110 -8 -110 -4 0 -16 7 -27 15 -44 33
-134 11 -172 -43 -47 -65 -31 -144 37 -189 42 -28 86 -29 129 -3 l32 20 0 -88
0 -88 -137 -67 c-130 -63 -135 -67 -109 -77 15 -5 35 -10 44 -11 9 0 40 -9 67
-19 33 -13 41 -18 23 -17 -15 2 -30 6 -34 10 -14 14 -29 6 -41 -20 -7 -15 -13
-33 -13 -40 0 -7 -5 -13 -11 -13 -5 0 -7 -4 -4 -10 3 -5 2 -10 -3 -10 -5 0
-35 34 -66 75 -32 42 -64 75 -74 75 -14 0 -14 2 -3 9 12 8 13 12 2 25 -11 12
-17 14 -27 5 -8 -6 -14 -8 -14 -4 0 4 -7 2 -15 -5 -9 -7 -18 -10 -22 -6 -3 3
-1 6 6 6 7 0 9 5 6 11 -5 6 -11 4 -19 -7 -18 -23 -79 -14 -193 28 l-88 33 -3
75 c-3 93 4 106 44 85 16 -8 40 -15 54 -15 59 0 130 74 130 136 0 39 -35 92
-78 117 -29 17 -40 18 -75 10 -23 -6 -50 -14 -59 -18 -17 -7 -18 2 -18 114 l0
120 146 3 c174 4 181 7 145 81 -20 40 -21 51 -11 81 13 41 24 51 70 64 19 6
36 11 38 11 1 1 14 -6 28 -15z m-1551 -24 c24 -24 26 -89 4 -138 -13 -32 -13
-35 10 -53 22 -18 35 -19 162 -14 l139 6 0 -112 0 -111 -25 16 c-33 22 -93 20
-132 -4 -94 -57 -88 -187 11 -234 41 -20 73 -20 106 -1 14 8 28 14 33 15 4 0
7 -50 7 -110 l0 -111 -67 7 c-245 24 -457 148 -542 318 l-33 66 -51 0 -52 0
-3 130 -3 129 138 -6 c133 -5 139 -5 158 16 17 20 18 25 6 54 -32 77 -20 135
32 157 30 13 78 3 102 -20z m2365 10 c35 -35 38 -76 9 -147 -23 -57 -8 -63
152 -63 l139 0 0 -124 0 -124 -49 21 c-45 18 -53 19 -87 6 -46 -18 -76 -57
-83 -110 l-6 -41 -262 -103 -263 -103 0 58 c0 126 -21 155 -90 119 -100 -53
-187 54 -114 140 31 38 81 42 125 11 24 -18 31 -19 49 -8 11 7 20 17 21 23 0
5 2 60 2 120 l2 110 149 3 c90 1 155 7 163 14 16 13 17 50 1 66 -6 6 -11 32
-11 58 0 39 4 51 27 71 35 30 97 32 126 3z m-3116 -15 c30 -28 34 -67 11 -121
-22 -53 -8 -71 61 -80 32 -4 90 -4 131 0 l73 6 0 -130 c0 -72 -4 -130 -9 -130
-5 0 -46 7 -92 16 -118 22 -250 87 -334 165 -36 34 -65 65 -65 70 0 5 17 9 39
9 52 0 69 21 52 63 -27 65 -26 94 7 127 39 39 87 41 126 5z m3860 4 c19 -15
26 -30 26 -55 0 -29 -10 -46 -57 -96 -65 -68 -342 -278 -367 -278 -4 0 -6 52
-6 115 l0 115 135 0 c124 0 135 2 145 20 8 15 7 31 -3 61 -17 50 -12 81 19
114 29 31 71 33 108 4z m-2015 -317 c-2 -153 -2 -150 21 -162 15 -8 28 -5 60
11 78 41 140 6 140 -78 0 -77 -69 -111 -137 -67 -33 21 -61 17 -79 -11 -14
-21 -16 -40 -11 -101 l7 -75 -44 31 c-25 16 -61 46 -82 65 l-37 35 -66 -38
c-122 -73 -204 -101 -361 -127 -154 -24 -140 -35 -140 104 0 95 -3 123 -16
135 -19 20 -41 20 -74 1 -34 -20 -83 -18 -109 3 -16 12 -22 29 -23 60 -1 85
54 120 136 84 38 -17 47 -18 63 -7 15 11 18 29 18 134 l0 121 139 0 c128 0
138 -1 131 -17 -27 -64 -30 -94 -10 -130 11 -20 33 -46 48 -57 57 -42 154 -13
192 59 19 34 17 65 -10 127 -6 16 4 18 112 20 65 2 121 2 125 0 4 -2 7 -56 7
-120z m1485 -143 c-4 -7 0 -9 14 -5 11 4 23 2 27 -3 3 -6 -26 -26 -65 -46 -63
-32 -70 -33 -70 -16 0 22 63 81 86 81 9 0 12 -5 8 -11z m-686 -570 c45 -17 82
-36 82 -41 0 -11 -18 -10 -25 2 -4 6 -11 8 -16 5 -5 -4 -9 -1 -9 6 0 7 -3 9
-6 6 -4 -3 -15 -2 -25 3 -9 6 -19 7 -22 2 -2 -4 -2 -1 0 7 2 8 -2 11 -12 7
-11 -4 -14 -2 -9 6 5 8 2 9 -9 5 -10 -4 -17 -1 -17 6 0 7 -7 3 -15 -7 -8 -10
-12 -23 -9 -27 3 -5 0 -9 -5 -9 -15 0 -14 23 1 38 9 9 9 12 0 12 -7 0 -12 5
-12 11 0 6 6 9 13 6 6 -3 49 -20 95 -38z m-193 21 c-3 -5 -11 -10 -16 -10 -6
0 -7 5 -4 10 3 6 11 10 16 10 6 0 7 -4 4 -10z m55 -4 c0 -2 -7 -7 -16 -10 -8
-3 -12 -2 -9 4 6 10 25 14 25 6z m2 -58 c-7 -7 -12 -8 -12 -2 0 14 12 26 19
19 2 -3 -1 -11 -7 -17z m92 7 c-4 -8 -16 -15 -28 -15 -20 0 -20 1 4 14 14 8
26 14 27 15 1 1 0 -6 -3 -14z m291 -71 c89 -38 91 -40 107 -86 13 -40 14 -48
2 -48 -8 0 -13 3 -13 8 4 23 -3 34 -17 28 -14 -5 -15 -4 -5 7 9 11 8 17 -4 27
-13 11 -14 10 -9 -4 3 -9 1 -16 -5 -16 -6 0 -11 4 -11 8 0 5 -11 14 -24 20
-20 9 -27 7 -41 -8 -11 -12 -15 -27 -11 -42 3 -13 3 -17 0 -10 -3 6 -9 10 -13
8 -4 -3 -13 -1 -20 4 -11 6 -9 10 8 19 11 7 21 16 21 22 0 6 -4 7 -10 4 -5 -3
-10 -1 -10 5 0 7 -7 10 -15 6 -8 -3 -15 -3 -15 0 0 3 13 10 29 15 21 7 28 15
24 26 -6 14 -7 14 -18 -1 -7 -9 -21 -16 -31 -15 -16 0 -15 2 4 10 19 7 21 11
10 21 -17 17 -79 39 -89 32 -5 -3 -6 2 -3 10 5 13 10 14 37 2 18 -7 73 -31
122 -52z m-348 11 c-23 -22 -33 -18 -12 5 10 11 20 18 23 16 2 -3 -3 -12 -11
-21z m152 -8 c-2 -1 -13 -9 -24 -17 -19 -14 -19 -14 -6 3 7 9 18 17 24 17 6 0
8 -1 6 -3z m-214 -18 c12 -19 -5 -23 -22 -6 -16 16 -16 17 -1 17 9 0 20 -5 23
-11z m115 1 c0 -5 -8 -10 -17 -10 -15 0 -16 2 -3 10 19 12 20 12 20 0z m-76
-6 c12 -5 13 -10 5 -26 -11 -21 5 -53 22 -42 5 3 7 -1 4 -8 -5 -14 33 -62 56
-70 8 -3 19 2 26 11 11 14 12 14 13 -1 0 -20 8 -22 29 -9 7 5 11 13 7 19 -3 5
3 12 14 15 20 5 20 5 -1 -24 -12 -17 -16 -29 -9 -29 7 0 10 -7 6 -15 -4 -13
-2 -14 15 -5 11 6 17 16 13 23 -5 9 -3 9 6 0 11 -11 10 -17 -8 -36 -14 -15
-20 -30 -16 -40 3 -10 1 -17 -5 -17 -9 0 -9 -5 -1 -21 29 -53 -6 -18 -107 108
-89 112 -106 139 -91 141 15 3 17 6 7 18 -13 15 -9 17 15 8z m276 -34 c0 -5
-5 -10 -11 -10 -5 0 -7 5 -4 10 3 6 8 10 11 10 2 0 4 -4 4 -10z m120 -35 c0
-8 -9 -15 -20 -15 -11 0 -20 4 -20 10 0 5 7 7 15 4 8 -4 15 -1 15 5 0 6 2 11
5 11 3 0 5 -7 5 -15z m-260 -25 c-27 -24 -38 -26 -20 -5 7 8 9 15 4 16 -5 0 0
4 11 8 29 12 31 4 5 -19z m100 20 c0 -5 -5 -10 -11 -10 -5 0 -7 5 -4 10 3 6 8
10 11 10 2 0 4 -4 4 -10z m-150 -25 c-7 -9 -15 -13 -19 -10 -3 3 1 10 9 15 21
14 24 12 10 -5z m203 -15 c-6 -21 -18 -26 -28 -11 -4 7 17 28 32 31 0 0 -1 -9
-4 -20z m67 -6 c0 -2 -9 -4 -20 -4 -11 0 -20 4 -20 9 0 5 9 7 20 4 11 -3 20
-7 20 -9z m245 -233 c19 -46 33 -86 30 -89 -3 -3 -5 0 -5 6 0 20 -54 18 -72
-3 -13 -16 -18 -17 -18 -5 -1 9 -5 5 -11 -8 -6 -17 -14 -22 -28 -17 -14 4 -21
0 -26 -15 -11 -34 -30 -23 -26 15 0 6 -8 11 -19 11 -11 0 -20 -4 -20 -8 0 -4
-7 -8 -15 -8 -8 0 -15 -5 -15 -11 0 -6 7 -8 15 -5 9 3 18 -1 21 -9 4 -8 10
-13 14 -10 4 3 10 -2 13 -10 4 -9 1 -12 -9 -8 -17 6 -18 -8 -1 -26 10 -10 8
-11 -6 -5 -15 6 -16 3 -7 -22 9 -27 8 -26 -26 11 -41 46 -124 151 -124 158 0
3 11 7 25 9 14 3 25 2 25 -2 0 -4 12 -5 26 -2 20 3 24 9 21 24 -5 16 -2 19 17
14 16 -4 22 -1 23 13 1 14 -4 17 -25 14 -25 -4 -26 -3 -7 9 11 7 25 13 30 14
6 0 16 2 23 2 10 2 10 7 2 22 -9 16 -8 22 5 26 9 4 14 12 11 20 -3 7 7 17 25
23 16 5 29 13 29 16 0 3 -4 3 -10 0 -5 -3 -10 -2 -10 4 0 5 5 11 11 13 6 2 12
17 12 33 0 25 5 19 33 -40 18 -38 49 -108 69 -154z m-285 199 c0 -5 -5 -10
-11 -10 -5 0 -7 5 -4 10 3 6 8 10 11 10 2 0 4 -4 4 -10z m-105 -60 c-3 -5 -12
-10 -18 -10 -7 0 -6 4 3 10 19 12 23 12 15 0z m130 -170 c3 -6 -1 -7 -9 -4
-18 7 -21 14 -7 14 6 0 13 -4 16 -10z m155 -100 c0 -5 -5 -10 -11 -10 -5 0 -7
5 -4 10 3 6 8 10 11 10 2 0 4 -4 4 -10z m210 -112 c0 -5 -20 -8 -45 -8 -25 0
-45 5 -45 10 0 6 7 10 15 10 8 0 15 7 15 15 0 8 5 15 10 15 6 0 10 8 10 18 1
10 8 4 20 -18 11 -19 19 -38 20 -42z"/>
<path d="M4347 7263 c18 -2 50 -2 70 0 21 2 7 4 -32 4 -38 0 -55 -2 -38 -4z"/>
<path d="M4497 7231 c-6 -26 8 -49 17 -26 9 24 8 45 -3 45 -5 0 -11 -9 -14
-19z"/>
<path d="M4030 7150 c0 -43 -30 -81 -83 -105 l-52 -24 35 0 c44 0 76 17 101
55 20 30 26 94 9 94 -5 0 -10 -9 -10 -20z"/>
<path d="M3065 6433 c15 -35 16 -58 6 -86 -11 -29 -68 -70 -84 -60 -5 3 -7 0
-5 -8 10 -29 82 1 104 43 19 36 18 93 -2 112 -20 21 -28 20 -19 -1z"/>
<path d="M4999 6040 c-16 -10 -11 -17 15 -22 22 -4 33 17 13 25 -8 3 -20 1
-28 -3z"/>
<path d="M4951 6024 c0 -11 3 -14 6 -6 3 7 2 16 -1 19 -3 4 -6 -2 -5 -13z"/>
<path d="M5315 5945 c-17 -8 -37 -25 -44 -38 l-14 -22 22 19 c14 13 41 21 80
24 55 4 59 3 84 -28 31 -36 35 -76 11 -121 -29 -58 -18 -65 118 -72 84 -5 125
-4 134 4 32 26 12 31 -108 28 -68 -2 -124 -1 -125 3 -1 4 5 24 13 43 32 78
-16 164 -96 171 -29 3 -56 -1 -75 -11z"/>
<path d="M5145 5743 c-69 -32 -90 -37 -155 -37 -63 0 -86 5 -147 32 -84 38
-128 40 -174 9 -55 -37 -71 -78 -66 -173 l5 -82 -48 20 c-45 18 -48 23 -55 63
-4 31 -1 53 9 74 37 71 14 91 -105 91 l-82 0 19 -21 c17 -19 26 -21 87 -15 37
3 67 3 67 0 0 -4 -8 -28 -17 -54 -14 -41 -15 -54 -4 -89 14 -50 58 -81 113
-81 31 0 38 -4 46 -28 5 -16 24 -45 41 -65 l32 -35 46 49 c58 62 128 96 222
108 123 16 228 -12 305 -80 37 -32 39 -32 52 -14 30 40 56 131 56 192 1 72
-20 116 -72 150 -46 31 -82 28 -175 -14z"/>
<path d="M6967 6229 c7 -7 15 -10 18 -7 3 3 -2 9 -12 12 -14 6 -15 5 -6 -5z"/>
<path d="M6845 6220 c-19 -8 -19 -9 3 -9 12 -1 22 4 22 9 0 6 -1 10 -2 9 -2 0
-12 -4 -23 -9z"/>
<path d="M6815 6180 c-3 -5 -1 -10 4 -10 6 0 11 5 11 10 0 6 -2 10 -4 10 -3 0
-8 -4 -11 -10z"/>
<path d="M7200 6180 c-13 -8 -12 -10 3 -10 9 0 17 5 17 10 0 12 -1 12 -20 0z"/>
<path d="M7010 6140 c0 -5 5 -10 10 -10 6 0 10 5 10 10 0 6 -4 10 -10 10 -5 0
-10 -4 -10 -10z"/>
<path d="M7176 6141 c-3 -5 1 -14 8 -20 12 -10 13 -8 9 8 -6 23 -9 25 -17 12z"/>
<path d="M6438 6133 c7 -3 16 -2 19 1 4 3 -2 6 -13 5 -11 0 -14 -3 -6 -6z"/>
<path d="M6575 6110 c3 -5 8 -10 11 -10 2 0 4 5 4 10 0 6 -5 10 -11 10 -5 0
-7 -4 -4 -10z"/>
<path d="M6895 6100 c-3 -5 -1 -10 4 -10 6 0 11 5 11 10 0 6 -2 10 -4 10 -3 0
-8 -4 -11 -10z"/>
<path d="M6975 6100 c-3 -5 -1 -10 4 -10 6 0 11 5 11 10 0 6 -2 10 -4 10 -3 0
-8 -4 -11 -10z"/>
<path d="M7135 6100 c-3 -5 -1 -10 4 -10 6 0 11 5 11 10 0 6 -2 10 -4 10 -3 0
-8 -4 -11 -10z"/>
<path d="M6412 6085 c-11 -12 -10 -15 3 -15 8 0 15 7 15 15 0 18 -2 18 -18 0z"/>
<path d="M7086 6061 c-19 -7 -19 -8 2 -13 15 -4 22 -2 22 8 0 8 -1 14 -2 13
-2 0 -12 -4 -22 -8z"/>
<path d="M7162 6020 c0 -14 2 -19 5 -12 2 6 2 18 0 25 -3 6 -5 1 -5 -13z"/>
<path d="M6975 6020 c-3 -5 -1 -10 4 -10 6 0 11 5 11 10 0 6 -2 10 -4 10 -3 0
-8 -4 -11 -10z"/>
<path d="M7061 6014 c0 -11 3 -14 6 -6 3 7 2 16 -1 19 -3 4 -6 -2 -5 -13z"/>
<path d="M7121 6021 c-7 -5 -9 -11 -5 -14 5 -3 15 1 22 9 14 16 5 18 -17 5z"/>
<path d="M7170 5985 c-7 -9 -8 -15 -2 -15 5 0 12 7 16 15 3 8 4 15 2 15 -2 0
-9 -7 -16 -15z"/>
<path d="M7080 5983 c-30 -12 -38 -27 -27 -50 6 -13 14 -23 19 -23 5 0 4 9 -2
20 -8 16 -8 18 4 14 8 -3 17 0 21 5 3 6 11 9 16 5 6 -4 6 -11 -1 -19 -9 -11
-7 -12 11 -8 15 4 20 3 15 -5 -4 -7 -1 -12 8 -12 27 0 15 31 -16 43 -10 3 -18
11 -18 16 0 6 8 8 18 5 14 -5 15 -4 2 5 -16 12 -27 12 -50 4z m20 -17 c0 -3
-4 -8 -10 -11 -5 -3 -10 -1 -10 4 0 6 5 11 10 11 6 0 10 -2 10 -4z"/>
<path d="M7090 5900 c0 -5 5 -10 10 -10 6 0 10 5 10 10 0 6 -4 10 -10 10 -5 0
-10 -4 -10 -10z"/>
<path d="M7110 5680 c0 -6 -10 -15 -22 -20 -21 -8 -20 -9 8 -8 25 2 30 6 26
20 -5 20 -12 24 -12 8z"/>
<path d="M7056 5615 c4 -8 8 -15 10 -15 2 0 4 7 4 15 0 8 -4 15 -10 15 -5 0
-7 -7 -4 -15z"/>
<path d="M7248 5623 c7 -3 16 -2 19 1 4 3 -2 6 -13 5 -11 0 -14 -3 -6 -6z"/>
<path d="M6940 5581 c0 -6 4 -13 10 -16 6 -3 7 1 4 9 -7 18 -14 21 -14 7z"/>
<path d="M7095 5580 c3 -5 8 -10 11 -10 2 0 4 5 4 10 0 6 -5 10 -11 10 -5 0
-7 -4 -4 -10z"/>
<path d="M7055 5540 c3 -5 8 -10 11 -10 2 0 4 5 4 10 0 6 -5 10 -11 10 -5 0
-7 -4 -4 -10z"/>
<path d="M7125 5540 c-3 -6 1 -7 9 -4 18 7 21 14 7 14 -6 0 -13 -4 -16 -10z"/>
<path d="M7161 5506 c-9 -11 -6 -15 15 -20 33 -9 36 -6 14 17 -15 15 -19 15
-29 3z"/>
<path d="M7200 5509 c0 -5 5 -7 10 -4 6 3 10 8 10 11 0 2 -4 4 -10 4 -5 0 -10
-5 -10 -11z"/>
<path d="M7006 5484 c-5 -14 -4 -15 9 -4 17 14 19 20 6 20 -5 0 -12 -7 -15
-16z"/>
<path d="M6830 5476 c0 -2 7 -7 16 -10 8 -3 12 -2 9 4 -6 10 -25 14 -25 6z"/>
<path d="M7215 5470 c-3 -5 -1 -10 4 -10 6 0 11 5 11 10 0 6 -2 10 -4 10 -3 0
-8 -4 -11 -10z"/>
<path d="M7130 5461 c0 -5 7 -11 14 -14 10 -4 13 -1 9 9 -6 15 -23 19 -23 5z"/>
<path d="M7240 5453 c0 -10 4 -14 8 -8 4 6 11 13 16 18 5 4 2 7 -7 7 -10 0
-17 -8 -17 -17z"/>
<path d="M7090 5416 c0 -2 7 -7 16 -10 8 -3 12 -2 9 4 -6 10 -25 14 -25 6z"/>
<path d="M7140 5400 c0 -6 7 -10 15 -10 8 0 15 2 15 4 0 2 -7 6 -15 10 -8 3
-15 1 -15 -4z"/>
<path d="M6591 5381 c-9 -16 -8 -18 9 -14 21 6 26 18 11 28 -6 3 -15 -3 -20
-14z"/>
<path d="M7214 5385 c-23 -17 -38 -19 -28 -3 4 7 3 8 -4 4 -16 -10 -4 -34 16
-32 17 1 48 34 40 42 -3 2 -13 -3 -24 -11z"/>
<path d="M7070 5250 c0 -5 7 -7 15 -4 8 4 15 8 15 10 0 2 -7 4 -15 4 -8 0 -15
-4 -15 -10z"/>
<path d="M6980 5236 c0 -2 7 -7 16 -10 8 -3 12 -2 9 4 -6 10 -25 14 -25 6z"/>
<path d="M3575 4780 c-3 -5 -1 -10 4 -10 6 0 11 5 11 10 0 6 -2 10 -4 10 -3 0
-8 -4 -11 -10z"/>
<path d="M3697 4495 c-4 -8 -3 -16 1 -19 4 -3 9 4 9 15 2 23 -3 25 -10 4z"/>
<path d="M4295 4370 c3 -5 8 -10 11 -10 2 0 4 5 4 10 0 6 -5 10 -11 10 -5 0
-7 -4 -4 -10z"/>
<path d="M6410 4645 c-8 -9 -8 -15 -2 -15 12 0 26 19 19 26 -2 2 -10 -2 -17
-11z"/>
<path d="M5775 3790 c3 -5 8 -10 11 -10 2 0 4 5 4 10 0 6 -5 10 -11 10 -5 0
-7 -4 -4 -10z"/>
<path d="M6082 3704 c-11 -12 -10 -14 5 -14 15 0 16 -2 3 -10 -8 -5 -11 -12
-8 -15 11 -11 28 5 28 25 0 25 -12 31 -28 14z"/>
<path d="M6030 3581 c0 -6 9 -9 20 -8 11 1 20 5 20 9 0 4 -9 8 -20 8 -11 0
-20 -4 -20 -9z"/>
</g>
</svg>
